# xmcd
#
# Track frame offsets:
#	150
#	9879
#	19854
#	34177
#	46538
#	59141
#	73086
#	87189
#	102054
#	115627
#	126744
#	140501
#	154183
#	158330
#	174922
#	184381
#
# Disc length: 2586 seconds
#
# Revision: 1
# Processed by: cddbd v1.5.2PL0 Copyright (c) Steve Scherf et al.
# Submitted via: audiograbber 1.83.01
#
DISCID=cc0a1810
DTITLE=Variabel - That's Entertainment CD1
DYEAR=2009
DGENRE=Oldies
TTITLE0=Louis Armstrong - High Society Calypso
TTITLE1=Dean Martin - Memories are made of this
TTITLE2=Frank Sinatra - The Lady is a Tramp
TTITLE3=Nat King Cole - Smile
TTITLE4=Sammy Davis jr. - September Song
TTITLE5=Andrew Sisters - Rum and Coca Cola
TTITLE6=Nat King Cole  - Ain't Misbehavin'
TTITLE7=Glenn Miller - Tuxedo Junction
TTITLE8=Debbie Reynolds - Tammy
TTITLE9=Ginger Rodgers - Let yourself go
TTITLE10=Bing Crosby and Grace Kelly - True Love
TTITLE11=Louis Armstrong - C'est si bon
TTITLE12=Ray Martin - Love is a many spendored Thing
TTITLE13=Les Brown and Doris Day - Sentimental Journey
TTITLE14=Fred Astaire - Puttin' on the Ritz
TTITLE15=Johnny Davis and Frances Langford - Hooray for Hollywood
EXTD=
EXTT0=
EXTT1=
EXTT2=
EXTT3=
EXTT4=
EXTT5=
EXTT6=
EXTT7=
EXTT8=
EXTT9=
EXTT10=
EXTT11=
EXTT12=
EXTT13=
EXTT14=
EXTT15=
PLAYORDER=
